<svg xmlns="http://www.w3.org/2000/svg" viewBox="0 0 64 64" role="img" aria-label="BlokBlitz dino">
  <rect width="64" height="64" rx="12" fill="#bae6fd"/>
  <path d="M14 42h34c5 0 9-4 9-9 0-6-5-10-11-10H31l-7-8-2 8h-8c-5 0-9 4-9 9s4 10 9 10z" fill="#4ade80" stroke="#172033" stroke-width="4" stroke-linejoin="round"/>
  <path d="M19 42v8M42 42v8" stroke="#172033" stroke-width="5" stroke-linecap="round"/>
  <circle cx="46" cy="29" r="3" fill="#172033"/>
  <path d="M27 23l4-9 5 9" fill="#facc15" stroke="#172033" stroke-width="3" stroke-linejoin="round"/>
  <rect x="17" y="9" width="9" height="9" rx="2" fill="#60a5fa" stroke="#172033" stroke-width="3"/>
  <rect x="29" y="9" width="9" height="9" rx="2" fill="#facc15" stroke="#172033" stroke-width="3"/>
  <rect x="41" y="9" width="9" height="9" rx="2" fill="#fb923c" stroke="#172033" stroke-width="3"/>
</svg>
